<?xml version="1.0" encoding="UTF-8"?>
<svg id="Layer_1" data-name="Layer 1" xmlns="http://www.w3.org/2000/svg" viewBox="0 0 680 1002.07">
  <defs>
    <style>
      .cls-1 {
        fill: #bfff00;
      }
    </style>
  </defs>
  <path class="cls-1" d="m674.6,241.34c-10.69-39.75-31.52-76.44-58.64-107.18-20.77-23.92-45.7-43.75-71.63-61.71-21.58-15.36-44.03-29.56-67.96-40.94-13.5-6.57-27.31-12.56-41.47-17.54-4.14-2.08-8.47-3.48-12.97-4.23-2.55-.76-5.11-1.49-7.68-2.18-18.18-4.91-37.02-6.65-55.78-7.17-23.73-1.02-47.5.08-71.14,2.16-38.37,3.37-76.71,10.4-112.87,24-22.24,8.82-43.47,20.26-62.99,34.14-3.3.65-6.48,1.76-9.52,3.36-5.74,1.88-10.7,5.08-14.89,9.62-2.92,2.73-5.27,5.79-7.08,9.16-.92.82-1.82,1.67-2.67,2.6-2.72,2.54-4.95,5.37-6.71,8.48-7.79,7.46-15.12,15.4-21.75,23.97-.7.89-1.38,1.79-2.07,2.69-.51.5-1.02,1.01-1.51,1.54-3.98,3.71-6.92,8.03-8.85,12.96-2.65,4-5.18,8.08-7.58,12.23-4.2,4.09-7.2,8.88-8.98,14.39-1.95,3.73-3.17,7.66-3.7,11.77-2.64,6.72-4.86,13.61-6.59,20.67-2.71,10.91-3.76,22.13-4.42,33.35-2.67,5.36-3.9,11.11-3.67,17.27.47,3.51.94,7.03,1.41,10.54-2.1,4.86-3.05,10.03-2.85,15.52.55,4.12,1.1,8.24,1.65,12.37.36,1.28.78,2.52,1.23,3.75-.03.89-.04,1.79,0,2.7.55,4.12,1.1,8.24,1.65,12.37,1.86,6.67,5,12.59,9.4,17.77.27,1.18.55,2.35.84,3.52,1.88,6.61,3.93,13.23,7.05,19.37.59,1.09,1.2,2.17,1.82,3.25,5.39,25.39,16.41,49.08,26.04,73.06,6.98,17.26,14.26,34.5,18.89,52.58,2.78,11.65,4.89,27.98,5.19,42.64.59,42.36-7.62,84.16-15.09,125.66-3.73,20.93-7.11,41.95-9.23,63.1-1.32,15.84-1.02,31.84.84,47.63,2.87,22.58,8.67,34.58,22.18,52.43-.08.38-.11.76-.07,1.16,1.04,6.33,3.79,12.06,7.33,17.33,10.07,26.66,26.72,50.31,46.43,73.05,12.14,13.95,24.7,27.63,38.85,39.56,36.1,29.67,79.03,51.5,125.12,59.75,2.15.41,4.3.8,6.45,1.19,5.96,2.7,12.28,4.09,18.96,4.11,1.97.07,3.9-.02,5.79-.25,11.78,1.51,23.61,2.5,35.48,2.72,2.04.28,4.13.42,6.24.43,2.83.11,5.58-.12,8.24-.63,15.1-.63,30.17-2.41,45.03-5.13,10.63-2.15,21-5.42,31.31-8.78,6.42-2.11,12.72-4.53,18.94-7.17,5.34-.18,10.38-1.51,15.09-4,6.27-2.03,12.28-6.28,16.92-11.61,3.08-1.71,6.12-3.49,9.1-5.37,26.11-16.78,49.8-37.63,68.88-62.22,6.98-4.88,12.73-12.19,15.19-19.87,1.83-3.51,3.03-7.19,3.61-11.04,9.37-19.08,16.11-39.48,20.05-60.36,2.56-13.17,4.81-26.45,5.62-39.86,1.46-25.44.26-50.95.3-76.42-.18-35.06,1.83-70.15,6.03-104.95,5.73-45.57,15.78-90.45,25.57-135.27,6.76-30.76,14-61.42,19.78-92.39,7.04-37.99,11.18-77.67,1.87-115.63ZM19.85,206.58c-.19.36-.35.72-.52,1.09.44-2.45.92-4.85,1.42-7.22.28.57.59,1.12.9,1.67-.69,1.43-1.29,2.92-1.79,4.47Zm44.41-95.9c-.78.29-1.55.6-2.31.95,1.02-1.3,1.96-2.49,2.88-3.61-.22.88-.42,1.77-.57,2.67Zm88.79-60.23c-1.33-.12-2.67-.2-4.03-.2-.22,0-.44,0-.66,0,2.07-.92,4.15-1.82,6.25-2.69,1.64-.69,3.23-1.33,4.8-1.93-2.27,1.34-4.39,2.96-6.36,4.83Zm136.09-27.56c-.51.17-1.02.35-1.52.54-.07-.05-.14-.11-.2-.16-1.12-.65-2.25-1.24-3.4-1.79,1.89-.13,3.78-.25,5.67-.36,1.32-.08,2.65-.15,3.97-.23-1.54.55-3.05,1.21-4.52,1.99Zm93.33,270.43c-.25-.27-.51-.54-.76-.81.3-.04.6-.07.9-.11-.05.31-.1.62-.14.92Zm215.06,519.27c-.03-.26-.07-.51-.1-.77-.11-.38-.23-.76-.35-1.14.12-.84.2-1.7.26-2.56.4-.52.8-1.04,1.17-1.57-.32,2.01-.64,4.02-.98,6.03Zm56.37-444.04s0-.04,0-.06c-.15-.54-.32-1.08-.49-1.61.43-.79.82-1.6,1.18-2.41-.23,1.36-.45,2.72-.68,4.08Z"/>
</svg>