<?xml version="1.0" encoding="UTF-8"?>
<svg id="layer" xmlns="http://www.w3.org/2000/svg" viewBox="0 0 1366 768">
  <defs>
    <style>
      .cls-1 {
        fill: lime;
      }

      .cls-2 {
        fill: blue;
      }

      .cls-3 {
        fill: red;
      }
    </style>
  </defs>
  <g id="circle">
    <path class="cls-3" d="m872,466.5c-72.27,0-140.21-23.62-191.3-66.52-51.07-42.87-79.2-99.87-79.2-160.48s28.13-117.61,79.2-160.48c51.1-42.89,119.03-66.52,191.3-66.52s140.21,23.62,191.3,66.52c51.07,42.87,79.2,99.87,79.2,160.48s-28.13,117.61-79.2,160.48c-51.1,42.89-119.04,66.52-191.3,66.52Z"/>
    <path d="m872,13c36.47,0,71.85,6,105.15,17.82,32.16,11.42,61.04,27.76,85.83,48.58,24.78,20.81,44.24,45.03,57.83,72,14.06,27.91,21.19,57.55,21.19,88.1s-7.13,60.2-21.19,88.1c-13.59,26.97-33.04,51.19-57.83,72-24.8,20.82-53.67,37.16-85.83,48.58-33.3,11.82-68.68,17.82-105.15,17.82s-71.85-6-105.15-17.82c-32.16-11.42-61.04-27.76-85.83-48.58-24.78-20.81-44.24-45.03-57.83-72-14.06-27.91-21.19-57.55-21.19-88.1s7.13-60.2,21.19-88.1c13.59-26.97,33.04-51.19,57.83-72,24.8-20.82,53.67-37.16,85.83-48.58,33.3-11.82,68.68-17.82,105.15-17.82m0-1c-149.67,0-271,101.86-271,227.5s121.33,227.5,271,227.5,271-101.86,271-227.5S1021.67,12,872,12h0Z"/>
  </g>
  <g id="rec">
    <rect class="cls-2" x="156.5" y="218.5" width="644" height="461"/>
    <path d="m800,219v460H157V219h643m1-1H156v462h645V218h0Z"/>
  </g>
  <g id="line">
    <path class="cls-1" d="m287.63,130.39c-9.97,15.31-17.01,32.45-20.3,50.45-1.18,6.45-2.5,14.21,1.35,20.05,4.17,6.33,12.27,6.03,18.94,5.56,42.46-2.99,84.9-6.15,127.35-9.23,24.21-1.75,48.42-3.51,72.63-5.26l-1.45-1.1c12.84,34.57,2.8,74.13-20.76,101.71-25.42,29.75-65.31,43-103.65,42.15-39.89-.88-77.66-17.35-109.4-40.82-16.15-11.94-31.64-25.7-44.38-41.28-12.53-15.32-23.65-34.2-24.51-54.45-1.75-41.39,44.3-62.7,77.99-72.31s69.97-9.99,104.25-2.55c34.59,7.51,67.63,22.86,95.23,45.08,28.35,22.82,50.51,52.78,65.68,85.76,15.54,33.8,23.8,70.87,24.94,108.01.57,18.52-.61,37.1-3.63,55.39-1.56,9.46-3.96,18.69-5.93,28.06-1.8,8.53-2.69,17.68,1.48,25.69,3.95,7.57,11.46,12.51,18.36,17.12,8.77,5.85,17.67,11.5,26.7,16.95,17.8,10.74,36.09,20.67,54.79,29.77,37.24,18.13,76.09,32.98,115.93,44.31,39.11,11.12,79.93,19.91,120.54,23.04,7.54.58,16.24.33,22.07-5.21,6.45-6.13,8.65-17.03,10.79-25.28,4.51-17.37,5.24-36.92-6.81-51.5-9.41-11.38-25.5-16.77-38.62-8.25-11.85,7.7-17.74,23.27-15.65,37,2.56,16.87,14.97,30.42,28.29,40.09,14.54,10.56,31.49,17.93,48.88,22.28,35.64,8.91,74.02,5.35,108.14-7.84,34.11-13.18,63.54-36.38,86.58-64.57,51.64-63.17,69.14-145.29,71.52-225.12.66-22.26.24-44.53-.72-66.78-.08-1.92-3.08-1.93-3,0,3.65,84.91-.97,174.07-43.11,250-17.97,32.38-42.32,61.58-72.91,82.73-30.95,21.41-68.21,33.48-105.91,33.47s-77.35-11.5-101.99-39.34c-12.37-13.98-18.09-33.72-7.31-50.38,4.71-7.28,12.28-12.69,21.17-12.84,9.79-.17,18.54,5.94,24.05,13.66,12.83,18,7.08,42.76-.25,61.83-2.06,5.35-5.1,9.97-10.77,11.94-4.6,1.6-9.64,1.46-14.43,1.09-10.77-.83-21.54-2.41-32.22-4.01-40.55-6.06-80.55-15.75-119.41-28.81-39.3-13.22-77.41-29.91-113.75-49.86-18.18-9.98-35.98-20.74-53.16-32.38-9.23-6.25-17.29-13.35-17.79-25.28-.43-10.17,3.4-20.38,5.41-30.25,14.07-68.84,2.71-143.63-34.35-203.68s-97.39-98.61-166.03-107.97c-32.85-4.48-66.8-1.91-98.2,8.99s-67.85,30.23-69.82,66.63c-1.99,36.91,28.61,68.78,54.48,90.96,28.45,24.39,62.25,43.82,99.36,50.95s73.85,2.21,105.05-16.5c29.22-17.52,49.86-47.84,54.54-81.71,2.17-15.69.66-31.64-4.86-46.51-.22-.59-.76-1.15-1.45-1.1-38.47,2.79-76.94,5.57-115.41,8.36-19.24,1.39-38.47,2.79-57.71,4.18-9.54.69-19.09,1.49-28.64,2.07-4.69.28-9.68.44-13.3-2.97s-3.64-8.44-3.22-13c1.83-19.68,10.21-39.3,20.9-55.7,1.06-1.62-1.54-3.13-2.59-1.51h0Z"/>
  </g>
</svg>